g Casual Tree 03
v -0.3115625 0.420609 -0.2997632
v 0.1073901 0.4054845 -0.406228
v 0.01004639 1.114913 -0.009787598
v 0.1073901 0.4054845 -0.406228
v 0.4089087 0.4054845 -0.09668212
v 0.01004639 1.114913 -0.009787598
v 0.4089087 0.4054845 -0.09668212
v 0.2914722 0.420609 0.319331
v 0.01004639 1.114913 -0.009787598
v 0.2914722 0.420609 0.319331
v -0.1274829 0.4357335 0.4257959
v 0.01004639 1.114913 -0.009787598
v -0.1274829 0.4357335 0.4257959
v -0.4290039 0.4357335 0.11625
v 0.01004639 1.114913 -0.009787598
v -0.4290039 0.4357335 0.11625
v -0.3115625 0.420609 -0.2997632
v 0.01004639 1.114913 -0.009787598
v -0.4470483 -0.5891173 -0.4589526
v 0.1739404 -0.5891173 -0.6166309
v 2.441406E-06 0.4416496 0
v 0.1739404 -0.5891173 -0.6166309
v 0.6209887 -0.5891173 -0.1576782
v 2.441406E-06 0.4416496 0
v 0.6209887 -0.5891173 -0.1576782
v 0.4470483 -0.5891171 0.4589526
v 2.441406E-06 0.4416496 0
v 0.4470483 -0.5891171 0.4589526
v -0.1739404 -0.5891171 0.6166309
v 2.441406E-06 0.4416496 0
v -0.1739404 -0.5891171 0.6166309
v -0.6209887 -0.5891172 0.1576782
v 2.441406E-06 0.4416496 0
v -0.6209887 -0.5891172 0.1576782
v -0.4470483 -0.5891173 -0.4589526
v 2.441406E-06 0.4416496 0
v -0.3584521 -0.009185681 -0.4337109
v 0.1860718 0.04073505 -0.5726758
v -0.03284668 0.8854872 0.03199463
v 0.1860718 0.04073505 -0.5726758
v 0.5773657 0.04073513 -0.1709595
v -0.03284668 0.8854872 0.03199463
v 0.5773657 0.04073513 -0.1709595
v 0.424143 -0.009185605 0.3697217
v -0.03284668 0.8854872 0.03199463
v 0.424143 -0.009185605 0.3697217
v -0.1203784 -0.05910626 0.5086865
v -0.03284668 0.8854872 0.03199463
v -0.1203784 -0.05910626 0.5086865
v -0.5116724 -0.05910634 0.1069702
v -0.03284668 0.8854872 0.03199463
v -0.5116724 -0.05910634 0.1069702
v -0.3584521 -0.009185681 -0.4337109
v -0.03284668 0.8854872 0.03199463
v 0.4089087 0.4054845 -0.09668212
v 0.1073901 0.4054845 -0.406228
v -0.3115625 0.420609 -0.2997632
v -0.4290039 0.4357335 0.11625
v 0.2914722 0.420609 0.319331
v -0.1274829 0.4357335 0.4257959
v 0.6209887 -0.5891173 -0.1576782
v 0.1739404 -0.5891173 -0.6166309
v -0.4470483 -0.5891173 -0.4589526
v -0.6209887 -0.5891172 0.1576782
v 0.4470483 -0.5891171 0.4589526
v -0.1739404 -0.5891171 0.6166309
v 0.5773657 0.04073513 -0.1709595
v 0.1860718 0.04073505 -0.5726758
v -0.3584521 -0.009185681 -0.4337109
v -0.5116724 -0.05910634 0.1069702
v 0.424143 -0.009185605 0.3697217
v -0.1203784 -0.05910626 0.5086865
v -0.07083252 -1.114913 -0.0817456
v 0.03382568 -1.114913 -0.1083179
v 0.03382568 0.8756436 -0.1083203
v -0.07083252 0.8756436 -0.0817456
v 0.03382568 -1.114913 -0.1083179
v 0.1091699 -1.114913 -0.03096924
v 0.1091699 0.8756434 -0.03097168
v 0.03382568 0.8756436 -0.1083203
v 0.1091699 -1.114913 -0.03096924
v 0.07985596 -1.114913 0.07295166
v 0.07985596 0.8756436 0.07295166
v 0.1091699 0.8756434 -0.03097168
v 0.07985596 -1.114913 0.07295166
v -0.02480225 -1.114913 0.09952637
v -0.02480225 0.8756437 0.09952637
v 0.07985596 0.8756436 0.07295166
v -0.07083252 0.8756436 -0.0817456
v 0.03382568 0.8756436 -0.1083203
v 0.1091699 0.8756434 -0.03097168
v -0.1001465 0.8756436 0.02217773
v 0.07985596 0.8756436 0.07295166
v -0.02480225 0.8756437 0.09952637
v -0.02480225 -1.114913 0.09952637
v -0.1001465 -1.114913 0.02217773
v -0.1001465 0.8756436 0.02217773
v -0.02480225 0.8756437 0.09952637
v -0.1001465 -1.114913 0.02217773
v -0.07083252 -1.114913 -0.0817456
v -0.07083252 0.8756436 -0.0817456
v -0.1001465 0.8756436 0.02217773
vt 0.1204346 0.7572287
vt 0.02422877 0.8313795
vt 0.1924115 0.9908366
vt 0.02422877 0.8313795
vt 0 0.903663
vt 0.1924115 0.9908366
vt 0.9605561 0
vt 0.8482253 0.03512439
vt 0.9605561 0.2475866
vt 0.8482253 0.03512439
vt 0.8006002 0.09592947
vt 0.9605561 0.2475866
vt 0.8147724 0.5599418
vt 0.9270102 0.5950847
vt 0.9270102 0.3502059
vt 0.1924115 0.7553607
vt 0.1204346 0.7572287
vt 0.1924115 0.9908366
vt 0.4821856 0.003109521
vt 0.3388654 0.1116562
vt 0.5857406 0.3502059
vt 0.3388654 0.1116562
vt 0.2991003 0.2170935
vt 0.5857406 0.3502059
vt 0.2360056 0.3890252
vt 0.06952866 0.4408337
vt 0.2360056 0.7553607
vt 0.06952866 0.4408337
vt 0 0.5273144
vt 0.2360056 0.7553607
vt 0.5621875 1
vt 0.7349095 1
vt 0.6485481 0.6478847
vt 0.5857405 0
vt 0.4821856 0.003109521
vt 0.5857406 0.3502059
vt 0.5857405 0.2062419
vt 0.7119754 0.3016842
vt 0.8006001 0
vt 0.7119754 0.3016842
vt 0.8006001 0.3112929
vt 0.8006001 0
vt 0.7349095 0.9539879
vt 0.8869548 0.9539878
vt 0.8106498 0.6478847
vt 0.5757899 0.6478847
vt 0.6714296 0.6478847
vt 0.5621875 0.3502059
vt 0.6714296 0.6478847
vt 0.7909207 0.5435836
vt 0.5621875 0.3502059
vt 0.7909207 0.5435836
vt 0.8147724 0.4392823
vt 0.5621875 0.3502059
vt 0.2991006 0.7563122
vt 0.2991003 0.8875042
vt 0.3999282 0.9530998
vt 0.5007561 0.8875049
vt 0.3999286 0.6907163
vt 0.5007561 0.7563125
vt 4.82057E-08 0.09725567
vt 0 0.2917684
vt 0.1495501 0.3890252
vt 0.2991002 0.2917691
vt 0.1495505 0
vt 0.2991003 0.09725633
vt 0.2991003 0.4353338
vt 0.2991003 0.6055889
vt 0.4306442 0.6907164
vt 0.5621875 0.6055889
vt 0.4306439 0.3502059
vt 0.5621875 0.4353339
vt 0.2794508 0.3890252
vt 0.2503428 0.3891301
vt 0.2503428 0.9503241
vt 0.2794508 0.950219
vt 0.2503428 0.3891301
vt 0.2360056 0.3997153
vt 0.2360056 0.9609092
vt 0.2503428 0.9503241
vt 0.9708902 0.3503107
vt 0.9417821 0.3502059
vt 0.9417821 0.9113999
vt 0.9708903 0.9115047
vt 0.9417821 0.3502059
vt 0.9270102 0.360686
vt 0.9270102 0.92188
vt 0.9417821 0.9113999
vt 0.5259662 0.7562799
vt 0.5511752 0.7398887
vt 0.5511752 0.7071065
vt 0.5007561 0.7398894
vt 0.5259655 0.6907163
vt 0.5007561 0.7071072
vt 0.9999999 0.350206
vt 0.9708902 0.3502059
vt 0.9708903 0.9162537
vt 1 0.9162538
vt 0.2942228 0.3995055
vt 0.2794508 0.3890252
vt 0.2794508 0.950219
vt 0.2942228 0.9606995
vn -0.2036793 0.4561481 -0.8662814
vn -0.2036793 0.4561481 -0.8662814
vn -0.2036793 0.4561481 -0.8662814
vn 0.6437169 0.4387216 -0.6270182
vn 0.6437169 0.4387216 -0.6270182
vn 0.6437169 0.4387216 -0.6270182
vn 0.8606317 0.4561489 0.2263657
vn 0.8606317 0.4561489 0.2263657
vn 0.8606317 0.4561489 0.2263657
vn 0.2311025 0.4916494 0.8395669
vn 0.2311025 0.4916494 0.8395669
vn 0.2311025 0.4916494 0.8395669
vn -0.6162688 0.5097741 0.6002859
vn -0.6162688 0.5097741 0.6002859
vn -0.6162688 0.5097741 0.6002859
vn -0.8332041 0.4916486 -0.2530862
vn -0.8332041 0.4916486 -0.2530862
vn -0.8332041 0.4916486 -0.2530862
vn -0.2167037 0.4739863 -0.8534498
vn -0.2167037 0.4739863 -0.8534498
vn -0.2167037 0.4739863 -0.8534498
vn 0.6307563 0.4739867 -0.6143966
vn 0.6307563 0.4739867 -0.6143966
vn 0.6307563 0.4739867 -0.6143966
vn 0.8474604 0.4739863 0.2390562
vn 0.8474604 0.4739863 0.2390562
vn 0.8474604 0.4739863 0.2390562
vn 0.2167046 0.4739864 0.8534494
vn 0.2167046 0.4739864 0.8534494
vn 0.2167046 0.4739864 0.8534494
vn -0.6307563 0.4739869 0.6143964
vn -0.6307563 0.4739869 0.6143964
vn -0.6307563 0.4739869 0.6143964
vn -0.8474607 0.4739868 -0.2390539
vn -0.8474607 0.4739868 -0.2390539
vn -0.8474607 0.4739868 -0.2390539
vn -0.2558003 0.517978 -0.8162506
vn -0.2558003 0.517978 -0.8162506
vn -0.2558003 0.517978 -0.8162506
vn 0.5909557 0.5651764 -0.5756275
vn 0.5909557 0.5651764 -0.5756275
vn 0.5909557 0.5651764 -0.5756275
vn 0.8092481 0.5179785 0.2771563
vn 0.8092481 0.5179785 0.2771563
vn 0.8092481 0.5179785 0.2771563
vn 0.186277 0.4288362 0.8839686
vn 0.186277 0.4288362 0.8839686
vn 0.186277 0.4288362 0.8839686
vn -0.6608012 0.3860598 0.6436611
vn -0.6608012 0.3860598 0.6436611
vn -0.6608012 0.3860598 0.6436611
vn -0.8787685 0.4288367 -0.2094396
vn -0.8787685 0.4288367 -0.2094396
vn -0.8787685 0.4288367 -0.2094396
vn -0.02891403 -0.999185 0.02816413
vn -0.02891403 -0.999185 0.02816413
vn -0.02891403 -0.999185 0.02816413
vn -0.02891403 -0.999185 0.02816413
vn -0.02891403 -0.999185 0.02816413
vn -0.02891403 -0.999185 0.02816413
vn 0 -1 2.003983E-07
vn 0 -1 2.003983E-07
vn 0 -1 2.003983E-07
vn 0 -1 2.003983E-07
vn 0 -1 2.003983E-07
vn 0 -1 2.003983E-07
vn 0.07304298 -0.9947877 -0.07114831
vn 0.07304298 -0.9947877 -0.07114831
vn 0.07304298 -0.9947877 -0.07114831
vn 0.07304298 -0.9947877 -0.07114831
vn 0.07304298 -0.9947877 -0.07114831
vn 0.07304298 -0.9947877 -0.07114831
vn -0.2461001 -1.5791E-07 -0.9692444
vn -0.2461001 -1.5791E-07 -0.9692444
vn -0.2461001 -1.5791E-07 -0.9692444
vn -0.2461001 -1.5791E-07 -0.9692444
vn 0.7163283 -1.136801E-07 -0.6977634
vn 0.7163283 -1.136801E-07 -0.6977634
vn 0.7163283 -1.136801E-07 -0.6977634
vn 0.7163283 -1.136801E-07 -0.6977634
vn 0.9624385 0 0.2715001
vn 0.9624385 0 0.2715001
vn 0.9624385 0 0.2715001
vn 0.9624385 0 0.2715001
vn 0.2461167 1.579092E-07 0.9692402
vn 0.2461167 1.579092E-07 0.9692402
vn 0.2461167 1.579092E-07 0.9692402
vn 0.2461167 1.579092E-07 0.9692402
vn 9.838388E-07 1 -6.076718E-07
vn 9.838388E-07 1 -6.076718E-07
vn 9.838388E-07 1 -6.076718E-07
vn 9.838388E-07 1 -6.076718E-07
vn 9.838388E-07 1 -6.076718E-07
vn 9.838388E-07 1 -6.076718E-07
vn -0.7163283 1.136801E-07 0.6977634
vn -0.7163283 1.136801E-07 0.6977634
vn -0.7163283 1.136801E-07 0.6977634
vn -0.7163283 1.136801E-07 0.6977634
vn -0.9624398 0 -0.2714954
vn -0.9624398 0 -0.2714954
vn -0.9624398 0 -0.2714954
vn -0.9624398 0 -0.2714954
g Casual Tree 03_0
f 3/3/3 2/2/2 1/1/1
f 6/6/6 5/5/5 4/4/4
f 9/9/9 8/8/8 7/7/7
f 12/12/12 11/11/11 10/10/10
f 15/15/15 14/14/14 13/13/13
f 18/18/18 17/17/17 16/16/16
f 21/21/21 20/20/20 19/19/19
f 24/24/24 23/23/23 22/22/22
f 27/27/27 26/26/26 25/25/25
f 30/30/30 29/29/29 28/28/28
f 33/33/33 32/32/32 31/31/31
f 36/36/36 35/35/35 34/34/34
f 39/39/39 38/38/38 37/37/37
f 42/42/42 41/41/41 40/40/40
f 45/45/45 44/44/44 43/43/43
f 48/48/48 47/47/47 46/46/46
f 51/51/51 50/50/50 49/49/49
f 54/54/54 53/53/53 52/52/52
f 57/57/57 56/56/56 55/55/55
f 55/55/55 58/58/58 57/57/57
f 55/55/55 59/59/59 58/58/58
f 59/59/59 60/60/60 58/58/58
f 63/63/63 62/62/62 61/61/61
f 61/61/61 64/64/64 63/63/63
f 61/61/61 65/65/65 64/64/64
f 65/65/65 66/66/66 64/64/64
f 69/69/69 68/68/68 67/67/67
f 67/67/67 70/70/70 69/69/69
f 67/67/67 71/71/71 70/70/70
f 71/71/71 72/72/72 70/70/70
g Casual Tree 03_1
f 75/75/75 74/74/74 73/73/73
f 76/76/76 75/75/75 73/73/73
f 79/79/79 78/78/78 77/77/77
f 80/80/80 79/79/79 77/77/77
f 83/83/83 82/82/82 81/81/81
f 84/84/84 83/83/83 81/81/81
f 87/87/87 86/86/86 85/85/85
f 88/88/88 87/87/87 85/85/85
f 91/91/91 90/90/90 89/89/89
f 89/89/89 92/92/92 91/91/91
f 92/92/92 93/93/93 91/91/91
f 92/92/92 94/94/94 93/93/93
f 97/97/97 96/96/96 95/95/95
f 98/98/98 97/97/97 95/95/95
f 101/101/101 100/100/100 99/99/99
f 102/102/102 101/101/101 99/99/99
