g PolyGlowTube
v 0.3199999 -2.980232E-07 -2.980232E-07
v 0.313851 0.06242874 -2.980232E-07
v 0.3138931 0.06243727 0.2934247
v 0.3200426 -2.980232E-07 0.2934247
v 0.313851 -0.06242871 -2.980232E-07
v 0.3138931 -0.06243664 0.2934247
v 0.2956418 -0.1224581 -2.980232E-07
v 0.2956808 -0.1224746 0.2934247
v 0.2660705 -0.1777823 -2.980232E-07
v 0.2661059 -0.1778055 0.2934247
v 0.2262745 -0.2262739 -2.980232E-07
v 0.2263044 -0.2263038 0.2934247
v 0.1777829 -0.2660699 -2.980232E-07
v 0.1778061 -0.2661053 0.2934247
v 0.1224587 -0.2956412 -2.980232E-07
v 0.1224752 -0.2956808 0.2934247
v 0.06242931 -0.313851 -2.980232E-07
v 0.06243727 -0.3138931 0.2934247
v 2.980232E-07 -0.3199999 -2.980232E-07
v 2.980232E-07 -0.3200426 0.2934247
v -0.06242874 -0.3138516 -2.980232E-07
v -0.06243727 -0.3138931 0.2934247
v -0.1224588 -0.2956418 -2.980232E-07
v -0.1224746 -0.2956808 0.2934247
v -0.1777823 -0.2660705 -2.980232E-07
v -0.1778061 -0.2661059 0.2934247
v -0.226274 -0.2262745 -2.980232E-07
v -0.2263045 -0.2263044 0.2934247
v -0.2660699 -0.1777823 -2.980232E-07
v -0.2661059 -0.1778061 0.2934247
v -0.2956418 -0.1224587 -2.980232E-07
v -0.2956808 -0.1224752 0.2934247
v -0.3138516 -0.06242931 -2.980232E-07
v -0.3138931 -0.06243727 0.2934247
v -0.3199999 -2.980232E-07 -2.980232E-07
v -0.3200426 -2.980232E-07 0.2934247
v -0.3138516 0.06242874 -2.980232E-07
v -0.3138931 0.06243727 0.2934247
v -0.2956418 0.1224588 -2.980232E-07
v -0.2956808 0.1224752 0.2934247
v -0.2660705 0.1777823 -2.980232E-07
v -0.2661059 0.1778061 0.2934247
v -0.2262745 0.226274 -2.980232E-07
v -0.2263045 0.2263045 0.2934247
v -0.1777823 0.2660699 -2.980232E-07
v -0.1778061 0.2661059 0.2934247
v -0.1224588 0.2956412 -2.980232E-07
v -0.1224752 0.2956808 0.2934247
v -0.06242874 0.313851 -2.980232E-07
v -0.06243727 0.3138931 0.2934247
v -3.278255E-07 0.3199999 -2.980232E-07
v -3.278255E-07 0.3200426 0.2934247
v 0.06242871 0.313851 -2.980232E-07
v 0.06243727 0.3138931 0.2934247
v 0.1224587 0.2956412 -2.980232E-07
v 0.1224746 0.2956808 0.2934247
v 0.1777823 0.2660699 -2.980232E-07
v 0.1778061 0.2661059 0.2934247
v 0.2262739 0.226274 -2.980232E-07
v 0.2263044 0.2263045 0.2934247
v 0.2660699 0.1777823 -2.980232E-07
v 0.2661053 0.1778061 0.2934247
v 0.2956412 0.1224588 -2.980232E-07
v 0.2956808 0.1224752 0.2934247
v 0.313851 0.06242874 -2.980232E-07
v 0.3138931 0.06243727 0.2934247
vt 0.03171923 0.0005
vt 0.0005 0.0005
vt 0.0005 0.9995
vt 0.03171923 0.9995
vt 0.06293845 0.0005
vt 0.06293845 0.9995
vt 0.09415768 0.0005
vt 0.09415768 0.9995
vt 0.1253769 0.0005
vt 0.1253769 0.9995
vt 0.1565961 0.0005
vt 0.1565961 0.9995
vt 0.1878154 0.0005
vt 0.1878154 0.9995
vt 0.2190346 0.0005
vt 0.2190346 0.9995
vt 0.2502538 0.0005
vt 0.2502538 0.9995
vt 0.281473 0.0005
vt 0.281473 0.9995
vt 0.3126923 0.0005
vt 0.3126923 0.9995
vt 0.3439115 0.0005
vt 0.3439115 0.9995
vt 0.3751307 0.0005
vt 0.3751307 0.9995
vt 0.4063499 0.0005
vt 0.4063499 0.9995
vt 0.4375692 0.0005
vt 0.4375692 0.9995
vt 0.4687884 0.0005
vt 0.4687884 0.9995
vt 0.4999924 0.0005
vt 0.4999924 0.9995
vt 0.5312116 0.0005
vt 0.5312116 0.9995
vt 0.5624309 0.0005
vt 0.5624309 0.9995
vt 0.59365 0.0005
vt 0.59365 0.9995
vt 0.6248693 0.0005
vt 0.6248693 0.9995
vt 0.6560885 0.0005
vt 0.6560885 0.9995
vt 0.6873078 0.0005
vt 0.6873078 0.9995
vt 0.718527 0.0005
vt 0.718527 0.9995
vt 0.7497462 0.0005
vt 0.7497462 0.9995
vt 0.7809654 0.0005
vt 0.7809654 0.9995
vt 0.8121846 0.0005
vt 0.8121846 0.9995
vt 0.8434039 0.0005
vt 0.8434039 0.9995
vt 0.8746231 0.0005
vt 0.8746231 0.9995
vt 0.9058423 0.0005
vt 0.9058423 0.9995
vt 0.9370615 0.0005
vt 0.9370615 0.9995
vt 0.9682808 0.0005
vt 0.9682808 0.9995
vt 0.9995 0.0005
vt 0.9995 0.9995
vn -0.9999995 -0.0009775162 0
vn -0.9804492 -0.1945258 0.02964883
vn -0.9804492 -0.1945258 0.02964883
vn -0.9999995 -0.0009775162 0
vn -0.9804492 0.1945258 0.02964883
vn -0.9804492 0.1945258 0.02964883
vn -0.9237533 0.3822091 0.0244165
vn -0.9237533 0.3822091 0.0244165
vn -0.8312981 0.5558268 0
vn -0.8312981 0.5558268 0
vn -0.7067446 0.7067446 0.03200431
vn -0.7067446 0.7067446 0.03200431
vn -0.5558268 0.8312981 0
vn -0.5558268 0.8312981 0
vn -0.3822091 0.9237533 0.0244165
vn -0.3822091 0.9237533 0.0244165
vn -0.1945258 0.9804492 0.02964877
vn -0.1945258 0.9804492 0.02964877
vn -0.0009775162 0.9999995 0
vn -0.0009775162 0.9999995 0
vn 0.1945258 0.9804492 0.02964877
vn 0.1945258 0.9804492 0.02964877
vn 0.382209 0.9237533 0.02441772
vn 0.382209 0.9237533 0.02441772
vn 0.5558268 0.8312981 0
vn 0.5558268 0.8312981 0
vn 0.7067446 0.7067446 0.03200431
vn 0.7067446 0.7067446 0.03200431
vn 0.8312982 0.5558268 0
vn 0.8312982 0.5558268 0
vn 0.9237532 0.3822091 0.02441772
vn 0.9237532 0.3822091 0.02441772
vn 0.9804492 0.1945258 0.02964883
vn 0.9804492 0.1945258 0.02964883
vn 0.9999995 0.0009775162 0
vn 0.9999995 0.0009775162 0
vn 0.9804492 -0.1945258 0.02964883
vn 0.9804492 -0.1945258 0.02964883
vn 0.9237532 -0.382209 0.02441864
vn 0.9237532 -0.382209 0.02441864
vn 0.8312982 -0.5558268 0
vn 0.8312982 -0.5558268 0
vn 0.7067446 -0.7067446 0.03200431
vn 0.7067446 -0.7067446 0.03200431
vn 0.5558268 -0.8312982 0
vn 0.5558268 -0.8312982 0
vn 0.382209 -0.9237532 0.02441894
vn 0.382209 -0.9237532 0.02441894
vn 0.1945258 -0.9804492 0.02964877
vn 0.1945258 -0.9804492 0.02964877
vn -0.0009775162 -0.9999995 0
vn -0.0009775162 -0.9999995 0
vn -0.1945258 -0.9804492 0.02964877
vn -0.1945258 -0.9804492 0.02964877
vn -0.3822091 -0.9237532 0.02441772
vn -0.3822091 -0.9237532 0.02441772
vn -0.5558268 -0.8312982 0
vn -0.5558268 -0.8312982 0
vn -0.7067446 -0.7067446 0.03200431
vn -0.7067446 -0.7067446 0.03200431
vn -0.8312981 -0.5558268 0
vn -0.8312981 -0.5558268 0
vn -0.9237533 -0.382209 0.02441742
vn -0.9237533 -0.382209 0.02441742
vn -0.9804492 -0.1945258 0.02964883
vn -0.9804492 -0.1945258 0.02964883
g PolyGlowTube_0
f 3/3/3 2/2/2 1/1/1
f 4/4/4 3/3/3 1/1/1
f 4/4/4 1/1/1 5/5/5
f 6/6/6 4/4/4 5/5/5
f 6/6/6 5/5/5 7/7/7
f 8/8/8 6/6/6 7/7/7
f 8/8/8 7/7/7 9/9/9
f 10/10/10 8/8/8 9/9/9
f 10/10/10 9/9/9 11/11/11
f 12/12/12 10/10/10 11/11/11
f 12/12/12 11/11/11 13/13/13
f 14/14/14 12/12/12 13/13/13
f 14/14/14 13/13/13 15/15/15
f 16/16/16 14/14/14 15/15/15
f 16/16/16 15/15/15 17/17/17
f 18/18/18 16/16/16 17/17/17
f 18/18/18 17/17/17 19/19/19
f 20/20/20 18/18/18 19/19/19
f 20/20/20 19/19/19 21/21/21
f 22/22/22 20/20/20 21/21/21
f 22/22/22 21/21/21 23/23/23
f 24/24/24 22/22/22 23/23/23
f 24/24/24 23/23/23 25/25/25
f 26/26/26 24/24/24 25/25/25
f 26/26/26 25/25/25 27/27/27
f 28/28/28 26/26/26 27/27/27
f 28/28/28 27/27/27 29/29/29
f 30/30/30 28/28/28 29/29/29
f 30/30/30 29/29/29 31/31/31
f 32/32/32 30/30/30 31/31/31
f 32/32/32 31/31/31 33/33/33
f 34/34/34 32/32/32 33/33/33
f 34/34/34 33/33/33 35/35/35
f 36/36/36 34/34/34 35/35/35
f 36/36/36 35/35/35 37/37/37
f 38/38/38 36/36/36 37/37/37
f 38/38/38 37/37/37 39/39/39
f 40/40/40 38/38/38 39/39/39
f 40/40/40 39/39/39 41/41/41
f 42/42/42 40/40/40 41/41/41
f 42/42/42 41/41/41 43/43/43
f 44/44/44 42/42/42 43/43/43
f 44/44/44 43/43/43 45/45/45
f 46/46/46 44/44/44 45/45/45
f 46/46/46 45/45/45 47/47/47
f 48/48/48 46/46/46 47/47/47
f 48/48/48 47/47/47 49/49/49
f 50/50/50 48/48/48 49/49/49
f 50/50/50 49/49/49 51/51/51
f 52/52/52 50/50/50 51/51/51
f 52/52/52 51/51/51 53/53/53
f 54/54/54 52/52/52 53/53/53
f 54/54/54 53/53/53 55/55/55
f 56/56/56 54/54/54 55/55/55
f 56/56/56 55/55/55 57/57/57
f 58/58/58 56/56/56 57/57/57
f 58/58/58 57/57/57 59/59/59
f 60/60/60 58/58/58 59/59/59
f 60/60/60 59/59/59 61/61/61
f 62/62/62 60/60/60 61/61/61
f 62/62/62 61/61/61 63/63/63
f 64/64/64 62/62/62 63/63/63
f 64/64/64 63/63/63 65/65/65
f 66/66/66 64/64/64 65/65/65
